<svg xmlns="http://www.w3.org/2000/svg" viewBox="0 0 1200 675" role="img" aria-labelledby="title">
  <title id="title">Editorial platform website placeholder</title>
  <rect width="1200" height="675" fill="#f3f0e8"/>
  <rect width="1200" height="64" fill="#10251b"/>
  <circle cx="32" cy="32" r="6" fill="#a8bd65"/><rect x="58" y="25" width="90" height="14" rx="7" fill="#f3f0e8"/>
  <rect x="70" y="118" width="420" height="34" rx="8" fill="#10251b"/><rect x="70" y="170" width="330" height="18" rx="9" fill="#506158"/>
  <rect x="70" y="224" width="660" height="330" rx="22" fill="#86b99d"/>
  <rect x="770" y="224" width="360" height="88" rx="16" fill="#fbfaf6"/><rect x="794" y="246" width="210" height="14" rx="7" fill="#10251b"/><rect x="794" y="274" width="276" height="10" rx="5" fill="#506158"/>
  <rect x="770" y="334" width="360" height="88" rx="16" fill="#fbfaf6"/><rect x="794" y="356" width="180" height="14" rx="7" fill="#10251b"/><rect x="794" y="384" width="250" height="10" rx="5" fill="#506158"/>
  <rect x="770" y="444" width="360" height="110" rx="16" fill="#10251b"/><rect x="794" y="470" width="230" height="14" rx="7" fill="#f3f0e8"/><rect x="794" y="500" width="284" height="10" rx="5" fill="#a8bd65"/>
  <text x="70" y="625" fill="#506158" font-family="Arial,sans-serif" font-size="18">Replace with your original project screenshot</text>
</svg>
